<svg width="335" height="119" viewBox="0 0 335 119" fill="none" xmlns="http://www.w3.org/2000/svg">
<path d="M96.1104 24.7064V26.9782H64.4449V27.2149C64.4449 41.4139 70.2281 47.8508 79.3296 47.8508C84.6625 47.7994 89.7746 45.7171 93.6217 42.0292L95.1386 43.3545C93.0841 45.7488 90.5196 47.6544 87.6326 48.9319C84.7456 50.2094 81.6092 50.8265 78.4526 50.738C66.9099 50.738 57.7136 44.3957 57.7136 27.2149C57.7136 10.6493 66.341 3.54974 77.8601 3.54974C88.9999 3.54974 96.1104 9.93932 96.1104 24.7064ZM64.4449 24.7064H89.5687C89.5687 14.199 86.1557 5.91625 77.8127 5.91625C69.7541 5.91625 65.0137 12.6845 64.4449 24.7064Z" fill="black"/>
<path d="M112.216 3.11197C112.818 3.07507 113.421 3.16473 113.987 3.37517C114.552 3.58561 115.067 3.91214 115.498 4.33367C115.929 4.75519 116.267 5.26233 116.49 5.82233C116.712 6.38232 116.815 6.9827 116.79 7.58468C116.836 8.19152 116.749 8.80114 116.534 9.37061C116.319 9.94008 115.982 10.4556 115.545 10.8808C115.109 11.3061 114.585 11.6307 114.01 11.832C113.435 12.0332 112.822 12.1061 112.216 12.0455C111.614 12.1044 111.008 12.0294 110.439 11.826C109.87 11.6227 109.353 11.2959 108.926 10.8693C108.499 10.4428 108.172 9.92695 107.968 9.359C107.764 8.79104 107.689 8.18507 107.748 7.58468C107.712 6.98891 107.803 6.39226 108.014 5.83404C108.226 5.27582 108.553 4.7687 108.975 4.3461C109.398 3.9235 109.905 3.59502 110.463 3.38229C111.022 3.16957 111.619 3.07744 112.216 3.11197ZM112.216 41.7334C112.823 41.7067 113.428 41.8061 113.995 42.0254C114.561 42.2447 115.076 42.5792 115.506 43.0075C115.936 43.4358 116.272 43.9486 116.493 44.5135C116.714 45.0784 116.815 45.683 116.79 46.289C116.838 46.8968 116.752 47.5077 116.538 48.0786C116.324 48.6496 115.987 49.1666 115.55 49.5932C115.114 50.0198 114.589 50.3455 114.013 50.5474C113.437 50.7493 112.823 50.8225 112.216 50.7617C111.613 50.8208 111.005 50.7456 110.436 50.5416C109.866 50.3375 109.348 50.0097 108.921 49.5818C108.494 49.1538 108.167 48.6365 107.964 48.067C107.761 47.4976 107.687 46.8903 107.748 46.289C107.711 45.6892 107.8 45.0883 108.011 44.5252C108.221 43.9622 108.547 43.4494 108.968 43.02C109.389 42.5907 109.896 42.2543 110.455 42.0327C111.015 41.8111 111.614 41.7091 112.216 41.7334Z" fill="black"/>
<path d="M129.933 2.86346H141.618C152.627 2.86346 157.19 7.8213 157.19 14.1872C157.19 20.5531 153.101 23.4403 148.669 24.2449C153.836 24.8484 159.75 27.9366 159.75 36.5862C159.75 44.5614 154.713 49.7914 142.353 49.7914H129.933V2.86346ZM134.898 4.804V23.6651H141.819C148.93 23.6651 152.224 20.3756 152.224 14.412C152.224 8.44843 149.001 4.82767 141.144 4.82767L134.898 4.804ZM134.898 25.5228V47.839H142.293C150.589 47.839 154.512 43.4846 154.512 36.5153C154.512 29.0726 150.15 25.5228 141.89 25.5228H134.898Z" fill="black"/>
<path d="M169.681 2.86346H174.646V49.7914H169.681V2.86346Z" fill="black"/>
<path d="M187.54 2.86346H198.62C209.286 2.86346 215.401 6.9457 215.401 15.9976C215.401 22.967 211.313 26.9309 203.989 28.1378L218.293 49.7914H212.581L198.822 28.4928H192.505V49.7914H187.54V2.86346ZM192.505 4.804V26.5877H198.217C206.406 26.5877 210.163 23.109 210.163 16.1396C210.163 8.82707 206.406 4.804 198.217 4.804H192.505Z" fill="black"/>
<path d="M233.995 4.804H220.639V2.86346H251.925V4.804H238.972V49.7677H233.995V4.804Z" fill="black"/>
<path d="M260.186 49.7914V2.86346H265.151V24.446H287.312V2.86346H292.207V49.7914H287.312V26.3866H265.151V49.7914H260.186Z" fill="black"/>
<path d="M50.2476 4.5437C48.5129 9.5267 46.0876 14.2425 43.0423 18.5534C39.3448 23.4521 35.9318 26.7179 34.7467 26.8954C33.5616 27.0729 32.8505 26.2209 33.289 25.4637C35.276 22.2908 37.0191 18.9722 38.5034 15.5361C39.646 12.4338 40.4022 9.20292 40.7551 5.91628C43.8938 5.29788 47.0621 4.83976 50.2476 4.5437Z" fill="black"/>
<path d="M17.1007 4.55554C25.3133 4.55554 30.587 9.82103 30.587 18.2221C30.587 35.3912 15.1809 47.2947 5.3802 52.5366L4.0055 50.17C13.9721 43.9225 17.8829 37.2962 17.8829 32.2201C17.8829 26.3629 3.4248 27.7355 3.4248 16.8377C3.4248 9.63171 9.48059 4.55554 17.1007 4.55554Z" fill="black"/>
<path d="M210.447 80.6862C210.459 80.7647 210.459 80.8444 210.447 80.9228C210.435 81.0266 210.403 81.127 210.353 81.2187C209.272 82.9712 207.952 84.5643 206.43 85.9517C205.632 86.8192 204.755 87.6114 203.811 88.3182C203.216 88.7721 202.541 89.1094 201.82 89.3121C201.449 89.3872 201.068 89.3872 200.697 89.3119C200.327 89.2367 199.975 89.0879 199.663 88.8743C198.469 90.4999 196.748 91.6623 194.792 92.1638C193.335 92.4241 192.505 91.9744 192.292 90.8267C192.179 89.9667 192.328 89.0928 192.719 88.3182C193.248 87.2004 193.913 86.1513 194.698 85.1944C195.44 84.2555 196.305 83.4199 197.269 82.7096C197.975 82.1904 198.783 81.8273 199.639 81.6446C199.912 81.5444 200.204 81.5092 200.493 81.5419C200.781 81.5747 201.058 81.6744 201.301 81.8331C201.544 81.9918 201.747 82.2051 201.892 82.4559C202.038 82.7067 202.123 82.9881 202.14 83.2775C202.221 84.1569 202.107 85.0432 201.806 85.8735C201.505 86.7038 201.024 87.4577 200.398 88.0815C200.603 88.2278 200.836 88.3305 201.083 88.3834C201.33 88.4363 201.584 88.4383 201.832 88.3892C202.792 88.2235 204.202 87.2059 206.086 85.2536C206.904 84.4489 207.627 83.6562 208.291 82.887C208.91 82.1552 209.488 81.3888 210.021 80.5915C210.021 80.5087 210.116 80.4732 210.27 80.5087C210.424 80.5442 210.424 80.5442 210.447 80.6862ZM199.094 88.2472C198.768 88.0065 198.495 87.7018 198.291 87.3518C198.087 87.0018 197.957 86.614 197.909 86.212C197.65 85.3075 197.761 84.3371 198.217 83.5142C195.148 85.644 193.773 87.5491 194.07 89.2293C194.259 90.2587 194.757 90.7084 195.563 90.5664C196.969 90.2159 198.215 89.398 199.094 88.2472ZM201.465 83.0527C201.393 82.6031 201.097 82.4019 200.576 82.4374C200.246 82.5013 199.936 82.6417 199.67 82.8472C199.405 83.0527 199.191 83.3177 199.047 83.6207C198.713 84.2053 198.576 84.8813 198.656 85.5494C198.672 85.9188 198.76 86.2815 198.917 86.6165C199.073 86.9516 199.295 87.2524 199.568 87.5017C201.014 85.8452 201.642 84.3779 201.465 83.0527Z" fill="black"/>
<path d="M228.295 56.7134C228.508 57.9204 227.457 60.4722 225.143 64.3691C222.966 68.0028 220.433 71.4116 217.582 74.5451C216.231 76.0597 214.939 77.4086 213.683 78.5918C212.517 79.6924 211.278 80.7124 209.973 81.6446L208.788 84.8276L215.757 83.6443C215.865 83.6079 215.979 83.5966 216.092 83.6113C216.205 83.626 216.313 83.6663 216.408 83.7291C216.503 83.7919 216.582 83.8756 216.64 83.9737C216.697 84.0718 216.732 84.1817 216.74 84.2951C216.74 84.5199 216.527 84.7211 215.982 84.8986L207.888 86.6853C206.845 88.7442 206.003 90.3692 205.363 91.5603C204.954 92.3715 204.503 93.1613 204.012 93.9268C203.515 94.8261 202.898 95.8437 202.176 96.9796C201.453 98.1155 200.588 99.3461 199.568 100.861C198.905 101.807 198.217 102.73 197.506 103.606C196.776 104.504 195.984 105.35 195.136 106.138C193.919 107.339 192.576 108.406 191.131 109.321C189.975 110.049 188.692 110.555 187.35 110.812C186.643 110.959 185.907 110.858 185.264 110.528C185 110.435 184.762 110.278 184.572 110.072C184.382 109.865 184.245 109.616 184.174 109.345C184.056 108.694 184.364 108.315 185.098 108.161C185.235 108.23 185.366 108.309 185.49 108.398C185.84 108.652 186.213 108.873 186.604 109.061C186.968 109.286 187.369 109.446 187.789 109.534C188.133 109.595 188.482 109.627 188.831 109.629C189.546 109.466 190.228 109.182 190.846 108.788C191.779 108.215 192.662 107.566 193.489 106.848C195.452 105.162 197.175 103.215 198.608 101.062C199.557 99.6774 200.457 98.2694 201.322 96.814C202.187 95.3586 203.041 93.8558 203.858 92.2939C205.28 89.4186 205.992 87.6792 205.968 87.0758L205.506 87.1586C204.83 87.2769 204.439 87.0521 204.321 86.4605C204.202 85.8688 204.747 85.7032 205.802 85.4665L207.094 85.2299C207.497 84.236 208.113 82.7805 208.942 80.8637C209.772 78.935 210.839 76.5566 212.154 73.6931C217.669 62.0972 222.294 55.9364 226.031 55.2107C226.546 55.1146 227.079 55.2252 227.513 55.5183C227.717 55.6547 227.891 55.8309 228.026 56.0362C228.16 56.2416 228.252 56.4719 228.295 56.7134ZM226.648 57.0092C226.541 56.3703 225.984 56.1336 225.012 56.2993C224.04 56.465 222.642 57.7547 220.71 60.1804C219.784 61.3721 218.921 62.6124 218.127 63.8958C217.333 65.1619 216.598 66.4516 215.911 67.7887C215.223 69.1258 214.417 70.948 213.458 73.0305C212.498 75.1131 211.396 77.5151 210.163 80.272C210.756 79.7041 211.478 79.0178 212.332 78.225C213.185 77.4322 214.204 76.4856 215.401 75.4089C218.373 72.6563 220.949 69.5066 223.057 66.0493C225.771 61.8369 226.979 58.8315 226.648 57.0092Z" fill="black"/>
<path d="M239.529 66.8421C239.529 66.8421 237.159 70.7705 232.419 78.5563L233.877 77.3731L235.358 76.1898C236.41 75.4531 237.592 74.923 238.842 74.6279C240.027 74.4149 240.738 74.8172 241.011 75.8112C240.974 76.9477 240.557 78.0392 239.826 78.9113C239.393 79.576 238.892 80.1945 238.333 80.7572C237.776 81.337 237.147 81.9404 236.401 82.5557C235.33 83.4698 234.078 84.1473 232.727 84.5436C232.541 84.5933 232.345 84.5933 232.158 84.5436C231.988 84.48 231.829 84.3924 231.684 84.2833C231.535 84.1814 231.409 84.05 231.313 83.8974C231.217 83.7447 231.154 83.574 231.127 83.3958C230.985 82.603 231.186 82.1416 231.708 81.9878C231.811 81.9543 231.922 81.951 232.027 81.9783C232.132 82.0055 232.227 82.0622 232.3 82.1416C232.456 82.3108 232.603 82.4886 232.739 82.674C232.907 82.8733 233.132 83.018 233.383 83.0896C233.634 83.1613 233.901 83.1567 234.149 83.0763C235.014 82.9225 236.128 82.0232 237.491 80.4022C238.854 78.7811 239.506 77.5979 239.328 76.6158C239.245 76.1661 238.7 75.9886 237.669 76.0833C236.642 76.2968 235.696 76.7974 234.943 77.5269C234.419 78.0599 233.925 78.6208 233.462 79.2071C232.798 79.9526 231.98 80.9228 231.009 82.1061C229.658 83.7495 228.419 85.4809 227.299 87.2887C226.055 89.2411 224.799 91.5011 223.507 94.0333C221.358 98.506 220.256 101.326 220.201 102.494L220.473 103.996C220.516 104.16 220.513 104.333 220.465 104.495C220.417 104.658 220.326 104.805 220.201 104.919C219.993 105.129 219.743 105.29 219.466 105.393C219.3 105.404 219.134 105.404 218.968 105.393C218.801 105.384 218.638 105.335 218.494 105.251C218.341 105.209 218.199 105.132 218.081 105.025C217.964 104.918 217.874 104.784 217.819 104.635C217.731 104.136 217.842 103.623 218.127 103.204C218.34 102.588 218.506 102.127 218.648 101.831C218.79 101.535 218.85 101.358 218.873 101.298C219.667 99.0421 220.625 96.8472 221.741 94.7314C223.045 92.1677 224.708 89.178 226.731 85.7623C227.679 84.1216 229.101 81.755 230.997 78.6628C232.893 75.5706 235.322 71.721 238.285 67.1142C238.47 66.7841 238.757 66.5226 239.103 66.3688C239.257 66.4161 239.387 66.5463 239.529 66.8421Z" fill="black"/>
<path d="M266.229 70.7587C266.253 70.8425 266.258 70.9305 266.244 71.0164C266.229 71.1023 266.196 71.184 266.146 71.2556C264.961 72.7347 263.895 73.9653 263.03 74.9474C262.165 75.9295 261.465 76.6513 260.944 77.1482C259.874 78.1999 258.712 79.1543 257.472 79.9999C256.57 80.6182 255.555 81.0525 254.485 81.2778C252.98 81.5499 251.973 80.556 251.499 78.3078C250.72 79.1822 249.855 79.9752 248.915 80.6743C248.096 81.391 247.116 81.9021 246.059 82.1652C245.516 82.273 244.952 82.2237 244.436 82.0232C244.213 81.9879 244.008 81.8848 243.846 81.7281C243.685 81.5713 243.576 81.3685 243.535 81.1476C243.31 79.8934 244.187 78.1776 246.142 76.0123C247.013 75.0595 247.986 74.2062 249.046 73.4683C249.839 72.8879 250.749 72.4844 251.712 72.2851C252.755 72.1076 253.336 72.2851 253.442 72.7584C253.507 72.9818 253.515 73.2179 253.466 73.4452C253.416 73.6725 253.31 73.8838 253.158 74.0599C252.89 74.3643 252.526 74.5688 252.127 74.6397C252.116 74.5817 252.096 74.5258 252.068 74.4741C252.019 74.4217 251.979 74.3617 251.949 74.2966L251.771 74.0481C251.646 73.8724 251.475 73.7344 251.276 73.6488C251.078 73.5633 250.86 73.5336 250.646 73.563C249.227 73.9551 247.998 74.846 247.185 76.0715C246 77.5032 245.443 78.6864 245.609 79.6212C245.716 80.201 245.988 80.4732 246.403 80.4258C248.111 80.0462 249.661 79.1544 250.847 77.87C251.435 77.2038 251.962 76.4872 252.423 75.7283C252.862 74.9237 253.276 74.5451 253.679 74.5451C254.082 74.5451 254.248 74.5451 254.307 74.8645C254.266 75.4721 254.122 76.0683 253.881 76.6276C253.619 77.2028 253.494 77.8303 253.513 78.4616C253.521 78.6799 253.578 78.8935 253.681 79.0862C253.784 79.279 253.929 79.4457 254.107 79.5735C254.284 79.7014 254.488 79.7871 254.704 79.8241C254.919 79.8611 255.14 79.8484 255.35 79.7869C256.607 79.566 258.455 78.2565 260.897 75.8585C261.216 75.5745 261.785 75.0065 262.579 74.1783C263.373 73.35 264.464 72.2141 265.791 70.7942C265.853 70.7255 265.937 70.6797 266.028 70.664C266.139 70.6009 266.206 70.6324 266.229 70.7587Z" fill="black"/>
<path d="M279.052 68.5341C279.079 68.7057 279.045 68.8812 278.957 69.0311C276.184 72.2574 274.474 74.1743 273.826 74.7817C271.344 77.0892 268.258 78.6481 264.926 79.2781C264.065 79.4718 263.166 79.4059 262.343 79.0888C261.721 78.7927 261.134 78.4318 260.589 78.012C260.553 77.8563 260.553 77.6944 260.589 77.5387C260.162 77.8937 259.747 78.2368 259.404 78.5326C259.06 78.8284 258.621 79.1006 258.218 79.3491C257.816 79.5976 257.472 79.3491 257.424 79.2662C257.399 79.1653 257.399 79.0596 257.424 78.9586C257.484 78.8403 257.555 78.6628 257.661 78.438C258.938 77.5025 260.153 76.4868 261.3 75.397C262.485 74.2138 263.777 72.9477 265.056 71.5041C265.046 71.4613 265.046 71.4167 265.056 71.3739C265.674 70.6524 266.503 70.1432 267.427 69.9185C268.825 69.6701 269.643 70.1789 269.856 71.4331C269.947 72.5603 269.678 73.6873 269.086 74.6516C268.642 75.639 268.006 76.528 267.213 77.2665C268.955 76.9589 271.077 75.6691 273.589 73.3736C274.316 72.7616 275.008 72.1099 275.663 71.4213C276.469 70.6048 277.429 69.5872 278.543 68.3803C278.638 68.3383 278.737 68.3066 278.839 68.2856C278.922 68.2975 278.993 68.3685 279.052 68.5341ZM267.936 72.3679C267.929 72.2194 267.888 72.0744 267.816 71.9446C267.743 71.8148 267.641 71.7035 267.518 71.6197C267.395 71.536 267.254 71.4819 267.107 71.4618C266.959 71.4417 266.809 71.4562 266.668 71.5041L266.206 71.5869C266.087 71.5995 265.975 71.6492 265.886 71.7289C264.973 72.8175 264.132 73.7996 263.35 74.6752C262.568 75.5508 261.833 76.3318 261.146 77.0417C261.274 77.0119 261.408 77.0119 261.537 77.0417C262.352 77.4217 263.245 77.6041 264.144 77.5742C264.744 77.4731 265.312 77.2341 265.803 76.8761C266.351 76.4602 266.804 75.9316 267.13 75.326C267.427 74.8516 267.654 74.3377 267.806 73.7996C267.926 73.3324 267.97 72.849 267.936 72.3679Z" fill="black"/>
<path d="M291.898 66.2623C291.931 66.4287 291.901 66.6012 291.816 66.7475C289.042 69.9778 287.324 71.8946 286.684 72.5099C284.205 74.8244 281.119 76.3879 277.784 77.0181C276.92 77.2241 276.014 77.1579 275.189 76.8288C274.571 76.5375 273.987 76.1805 273.447 75.7639C273.411 75.6042 273.411 75.4384 273.447 75.2787C273.02 75.6456 272.605 75.9769 272.262 76.2845C271.881 76.5728 271.485 76.8413 271.077 77.0891C270.602 77.1838 270.342 77.0891 270.294 77.0181C270.263 76.918 270.263 76.8106 270.294 76.7105C270.294 76.5803 270.425 76.4147 270.531 76.1899C271.806 75.2478 273.021 74.2283 274.17 73.1371C275.355 71.9538 276.646 70.6877 277.914 69.256C277.906 69.213 277.906 69.1688 277.914 69.1258C278.532 68.4049 279.361 67.8958 280.285 67.6704C281.695 67.4219 282.501 67.9307 282.726 69.185C282.817 70.3084 282.547 71.4317 281.956 72.3916C281.515 73.3841 280.878 74.2775 280.083 75.0184C281.813 74.7108 283.935 73.4131 286.447 71.1255C287.028 70.6404 287.727 69.9423 288.533 69.1731C289.339 68.404 290.299 67.3391 291.413 66.1322C291.502 66.0866 291.598 66.0547 291.697 66.0375C291.768 66.0257 291.839 66.0967 291.898 66.2623ZM280.794 70.0843C280.786 69.9353 280.744 69.7903 280.67 69.6608C280.596 69.5312 280.492 69.4207 280.368 69.338C280.244 69.2553 280.102 69.2026 279.954 69.1843C279.806 69.1659 279.655 69.1824 279.514 69.2323L279.052 69.3151C278.933 69.3277 278.821 69.3774 278.732 69.4571C277.832 70.5457 276.99 71.516 276.196 72.3916C275.402 73.2672 274.679 74.0482 274.004 74.7581C274.132 74.7287 274.266 74.7287 274.395 74.7581C275.213 75.1276 276.104 75.3095 277.002 75.2906C277.597 75.1794 278.16 74.9368 278.649 74.5806C279.206 74.1738 279.661 73.6431 279.977 73.0306C280.28 72.5586 280.512 72.0442 280.664 71.5042C280.777 71.0399 280.821 70.5614 280.794 70.0843Z" fill="black"/>
<path d="M302.197 64.4283C302.214 64.51 302.211 64.5946 302.188 64.6749C302.165 64.7552 302.124 64.8289 302.067 64.8897C300.787 66.4635 299.696 67.7177 298.962 68.6407C298.227 69.5636 297.587 70.1907 297.22 70.5457C295.071 72.7939 293.356 74.0363 292.076 74.273C291.272 74.4026 290.447 74.2914 289.706 73.9535C289.382 73.8268 289.092 73.6259 288.859 73.367C288.626 73.1081 288.458 72.7983 288.367 72.4626C288.256 71.0772 288.602 69.6937 289.351 68.5223C289.784 67.4234 290.561 66.4938 291.567 65.8718C291.934 65.8127 292.136 65.8718 292.183 66.1558C291.988 66.9119 291.642 67.6204 291.164 68.2384C290.61 69.1654 290.35 70.2377 290.417 71.3148C290.607 72.4389 291.235 72.9122 292.266 72.7584C293.297 72.6046 296.592 69.7529 301.747 64.3455C301.747 64.2745 301.865 64.239 301.984 64.2153C302.102 64.1916 302.197 64.2745 302.197 64.4283ZM294.79 62.4996C294.932 63.2805 294.435 63.7657 293.321 63.9668C292.207 64.168 291.65 63.8958 291.531 63.0794C291.413 62.2629 291.863 61.766 292.953 61.5766C294.044 61.3873 294.684 61.6831 294.826 62.4996H294.79Z" fill="black"/>
<path d="M314.877 62.1919C314.883 62.2707 314.883 62.3498 314.877 62.4285C314.865 62.5341 314.828 62.6353 314.77 62.7244C313.699 64.4797 312.382 66.0735 310.86 67.4574C310.061 68.3249 309.185 69.1171 308.241 69.8239C307.646 70.2778 306.97 70.6151 306.25 70.8178C305.879 70.8929 305.497 70.8929 305.127 70.8176C304.756 70.7424 304.405 70.5936 304.093 70.38C302.89 72.0015 301.167 73.1625 299.21 73.6695C297.753 73.9298 296.923 73.4801 296.722 72.3324C296.608 71.4686 296.757 70.5906 297.148 69.8121C297.676 68.7091 298.332 67.6725 299.104 66.7238C299.843 65.7789 300.709 64.939 301.675 64.2271C302.378 63.7037 303.187 63.3402 304.045 63.1622C304.319 63.0643 304.611 63.0313 304.9 63.0658C305.188 63.1003 305.465 63.2013 305.707 63.3609C305.95 63.5204 306.152 63.7341 306.297 63.9851C306.443 64.2361 306.528 64.5174 306.546 64.8069C306.626 65.6862 306.511 66.5723 306.21 67.4025C305.909 68.2327 305.429 68.9866 304.804 69.6109C305.009 69.7571 305.242 69.8599 305.489 69.9128C305.736 69.9657 305.99 69.9676 306.238 69.9185C307.198 69.7529 308.608 68.7353 310.492 66.7829C311.282 65.9941 312.017 65.2052 312.697 64.4164C313.314 63.6823 313.891 62.9161 314.427 62.1209C314.427 62.0262 314.522 62.0026 314.676 62.0381C314.83 62.0736 314.853 62.0499 314.877 62.1919ZM303.488 69.7411C303.163 69.5027 302.89 69.2001 302.686 68.8521C302.482 68.5041 302.352 68.118 302.303 67.7177C302.048 66.8385 302.137 65.8952 302.552 65.079C299.495 67.2089 298.116 69.1139 298.416 70.7942C298.594 71.8236 299.092 72.2732 299.91 72.1194C301.345 71.7698 302.611 70.928 303.488 69.7411ZM305.859 64.5584C305.788 64.1088 305.479 63.9076 304.97 63.9431C304.64 64.007 304.33 64.1474 304.064 64.3529C303.799 64.5584 303.585 64.8234 303.441 65.1264C303.107 65.7107 302.97 66.3869 303.05 67.0551C303.084 67.8006 303.412 68.5024 303.962 69.0074C305.444 67.3509 306.072 65.8836 305.894 64.5584H305.859Z" fill="black"/>
<path d="M334.538 58.7013C334.57 58.8715 334.54 59.0475 334.455 59.1982C332.132 61.9197 330.489 63.738 329.525 64.653C327.895 66.4806 325.765 67.7926 323.398 68.4276C323.069 68.5271 322.722 68.5487 322.384 68.4905C322.046 68.4324 321.726 68.2962 321.45 68.0928C321.173 67.8894 320.949 67.6244 320.793 67.319C320.637 67.0135 320.556 66.676 320.554 66.3333C320.491 65.942 320.459 65.5463 320.459 65.15C320.421 64.5748 320.421 63.9977 320.459 63.4225C319.499 64.2271 318.527 65.0554 317.544 65.9191C316.56 66.7829 315.541 67.694 314.498 68.6761C313.77 69.4483 312.977 70.1569 312.128 70.7941L311.76 70.6877C311.583 70.6877 311.476 70.5457 311.452 70.4392C311.445 70.0867 311.509 69.7365 311.642 69.4097C311.886 68.7056 312.175 68.0179 312.507 67.3509L313.55 64.9844C313.811 64.4006 313.988 63.9865 314.083 63.7419C313.92 63.551 313.817 63.3165 313.787 63.0675C313.787 62.8387 313.929 62.5666 314.213 62.251C314.461 62.0202 314.75 61.8393 315.067 61.7186C316.027 61.5411 316.56 61.8251 316.69 62.5469C316.49 63.3791 316.167 64.1768 315.73 64.9134C315.399 65.5168 315.126 66.0966 314.889 66.4516C314.652 66.8066 314.45 67.197 314.273 67.4692C318.95 62.8939 322.059 60.4683 323.599 60.1922C323.73 60.1922 323.884 60.3223 324.026 60.6773C323.728 61.2955 323.387 61.8925 323.007 62.464C322.722 62.9929 322.5 63.5527 322.343 64.1324C322.204 64.6048 322.176 65.1027 322.26 65.5878C322.45 66.6291 323.24 67.0235 324.63 66.7711C325.697 66.5936 327.321 65.434 329.525 63.316C329.951 62.9452 331.433 61.3675 333.969 58.5829C334.064 58.5409 334.163 58.5092 334.265 58.4883C334.419 58.5119 334.478 58.5711 334.538 58.7013Z" fill="black"/>
</svg>
