<?xml version="1.0" encoding="UTF-8"?>
<svg width="221" height="34" viewBox="0 0 221 34" fill="none" xmlns="http://www.w3.org/2000/svg">
<path d="M45.9013 11.5264V12.6498H30.4602V12.7434C30.4602 19.7646 33.2803 22.9475 37.7185 22.9475C40.3198 22.9314 42.8168 21.91 44.6993 20.0922L45.439 20.7475C44.4371 21.9315 43.1866 22.8738 41.7788 23.5055C40.371 24.1372 38.8416 24.4423 37.3024 24.3986C31.6622 24.3986 27.1605 21.2624 27.1605 12.7434C27.1605 4.55206 31.3675 1.04147 36.9845 1.04147C42.434 1.04147 45.9013 4.2244 45.9013 11.5264ZM30.4602 11.5264H42.7114C42.7114 6.33075 41.0297 2.21167 36.9845 2.21167C33.0492 2.21167 30.7376 5.58183 30.4602 11.5264Z" fill="#1D1D1B"/>
<path d="M53.7432 0.854236C54.0363 0.836051 54.33 0.880236 54.6053 0.983945C54.8806 1.08765 55.1314 1.24859 55.3415 1.45638C55.5517 1.66418 55.7165 1.91423 55.8254 2.19043C55.9343 2.46663 55.9848 2.76287 55.9738 3.06005C55.9964 3.36013 55.9537 3.66157 55.8489 3.94316C55.744 4.22476 55.5795 4.47966 55.3668 4.68994C55.1542 4.90021 54.8986 5.06075 54.6181 5.16025C54.3376 5.25976 54.0389 5.29581 53.7432 5.26587C53.4494 5.2951 53.1529 5.25793 52.8751 5.15703C52.5972 5.05613 52.345 4.89403 52.1365 4.68243C51.9281 4.47082 51.7687 4.215 51.6698 3.93342C51.5708 3.65185 51.5349 3.35155 51.5646 3.0542C51.5486 2.76056 51.5941 2.46682 51.698 2.1922C51.8019 1.91759 51.962 1.66828 52.1676 1.46061C52.3733 1.25294 52.6199 1.09157 52.8914 0.98708C53.163 0.882586 53.4532 0.837317 53.7432 0.854236ZM53.7432 19.9518C54.0426 19.9366 54.3418 19.9853 54.6214 20.0947C54.9011 20.2042 55.1548 20.3719 55.3663 20.5871C55.5777 20.8023 55.7421 21.0601 55.8487 21.3437C55.9554 21.6274 56.0019 21.9306 55.9854 22.2337C56.0048 22.5327 55.9593 22.8325 55.8522 23.1119C55.745 23.3912 55.5788 23.6435 55.3651 23.8509C55.1515 24.0583 54.8955 24.2159 54.6153 24.3125C54.3351 24.4091 54.0375 24.4425 53.7432 24.4103C53.4535 24.4369 53.1616 24.399 52.8879 24.2993C52.6143 24.1995 52.3654 24.0404 52.159 23.833C51.9525 23.6256 51.7933 23.375 51.6926 23.0987C51.5919 22.8224 51.5522 22.5272 51.5761 22.2337C51.554 21.9358 51.5942 21.6365 51.6941 21.3554C51.7939 21.0742 51.9513 20.8176 52.1558 20.6023C52.3603 20.3869 52.6074 20.2176 52.881 20.1056C53.1545 19.9935 53.4483 19.9411 53.7432 19.9518Z" fill="#1D1D1B"/>
<path d="M62.4114 0.725525H68.1094C73.4779 0.725525 75.7027 3.18293 75.7027 6.33076C75.7027 9.47858 73.709 10.9062 71.5478 11.3041C74.0673 11.6025 76.951 13.1237 76.951 17.4008C76.951 21.3444 74.495 23.9305 68.4676 23.9305H62.4114V0.725525ZM64.8385 1.69094V11.0057H68.1903C71.6576 11.0057 73.2641 9.37911 73.2641 6.43022C73.2641 3.48133 71.6922 1.69094 67.8609 1.69094H64.8385ZM64.8385 11.9301V22.9709H68.4387C72.4839 22.9709 74.3967 20.8178 74.3967 17.3715C74.3967 13.6913 72.2701 11.9301 68.2423 11.9301H64.8385Z" fill="#1D1D1B"/>
<path d="M81.7763 0.725525H84.1976V23.9305H81.7763V0.725525Z" fill="#1D1D1B"/>
<path d="M90.485 0.725525H95.8882C101.089 0.725525 104.071 2.74996 104.071 7.22596C104.071 10.6722 102.077 12.6264 98.506 13.2232L105.481 23.9305H102.696L95.9865 13.3987H92.9063V23.9305H90.485V0.725525ZM92.9063 1.69094V12.4626H95.6917C99.6849 12.4626 101.517 10.7365 101.517 7.29032C101.517 3.68027 99.6849 1.69094 95.6917 1.69094H92.9063Z" fill="#1D1D1B"/>
<path d="M113.138 1.69094H106.625V0.725525H121.881V1.69094H115.577V23.9246H113.15L113.138 1.69094Z" fill="#1D1D1B"/>
<path d="M125.909 23.9305V0.725525H128.331V11.4036H139.137V0.725525H141.524V23.9305H139.137V12.3631H128.331V23.9305H125.909Z" fill="#1D1D1B"/>
<path d="M23.5372 1.56219C22.6889 4.02514 21.5064 6.35665 20.0237 8.48975C18.2264 10.9062 16.5564 12.5269 15.9785 12.5854C15.4006 12.6439 15.0539 12.2578 15.2677 11.8775C16.2393 10.3265 17.0932 8.70305 17.8219 7.02115C18.3795 5.48586 18.7444 3.88579 18.9083 2.25846C20.4381 1.94373 21.9832 1.71131 23.5372 1.56219Z" fill="#1D1D1B"/>
<path d="M7.37379 1.56805C11.3785 1.56805 13.9501 4.17174 13.9501 8.32008C13.9501 16.8157 6.43762 22.6959 1.65852 25.2879L0.98818 24.1177C5.84818 21.0635 7.7552 17.7752 7.7552 15.271C7.7552 12.3455 0.705017 13.0477 0.705017 7.66477C0.705017 4.09567 3.658 1.56805 7.37379 1.56805Z" fill="#1D1D1B"/>
<path d="M158.479 19.8933C158.482 19.9322 158.482 19.9714 158.479 20.0103C158.466 20.06 158.443 20.1061 158.409 20.1449C157.734 20.9102 156.956 21.5759 156.098 22.1225C155.643 22.4718 155.155 22.7755 154.642 23.0294C154.318 23.2014 153.965 23.3087 153.601 23.3454C153.229 23.3521 152.87 23.209 152.602 22.9475C152.322 23.2315 151.998 23.4668 151.642 23.6438C151.135 23.9401 150.563 24.1049 149.978 24.1235C149.256 24.1235 148.897 23.8368 148.897 23.2634C148.919 22.8404 149.064 22.4332 149.314 22.0933C149.663 21.6018 150.068 21.154 150.521 20.7592C150.955 20.3634 151.442 20.0306 151.966 19.7704C152.345 19.5774 152.761 19.4697 153.185 19.4545C153.89 19.4545 154.243 19.788 154.243 20.4608C154.207 20.8971 154.077 21.3199 153.861 21.6992C153.645 22.0785 153.349 22.4048 152.995 22.6549C153.081 22.7439 153.185 22.8141 153.299 22.8614C153.413 22.9086 153.536 22.932 153.659 22.9299C154.133 22.9299 154.902 22.5438 155.971 21.7597C156.427 21.4321 156.849 21.1103 157.231 20.7885C157.592 20.4856 157.936 20.1612 158.259 19.8172C158.259 19.7763 158.317 19.7704 158.386 19.8172C158.456 19.864 158.479 19.8289 158.479 19.8933ZM152.365 22.5906C152.225 22.4454 152.117 22.273 152.045 22.0839C151.973 21.8948 151.941 21.6929 151.949 21.4906C151.9 21.0308 152.033 20.5704 152.319 20.2092C150.673 20.9894 149.849 21.7968 149.845 22.6315C149.845 23.1523 150.047 23.4097 150.423 23.4097C151.144 23.374 151.83 23.0866 152.365 22.5964V22.5906ZM153.966 20.2502C153.966 20.022 153.838 19.8991 153.59 19.8699C153.429 19.8721 153.27 19.9111 153.126 19.9841C152.982 20.057 152.856 20.162 152.758 20.2912C152.549 20.5483 152.425 20.8657 152.405 21.1981C152.381 21.3803 152.393 21.5655 152.439 21.7433C152.486 21.921 152.567 22.0876 152.677 22.2337C153.509 21.5959 153.937 20.9348 153.966 20.2795V20.2502Z" fill="#1D1D1B"/>
<path d="M169.089 9.76528C169.089 10.366 168.368 11.5186 166.927 13.2232C165.57 14.7919 164.064 16.2224 162.432 17.4944C161.661 18.1146 160.923 18.6588 160.218 19.1268C159.562 19.5646 158.877 19.9556 158.167 20.297L157.358 21.7481H160.825C161.102 21.7481 161.241 21.8826 161.241 22.1518C161.241 22.2649 161.102 22.341 160.825 22.38L156.78 22.5497C156.098 23.4624 155.553 24.1821 155.144 24.7087C154.734 25.2353 154.457 25.5746 154.301 25.7326C153.983 26.1246 153.601 26.5634 153.145 27.0549C152.688 27.5464 152.174 28.1022 151.567 28.7224C151.163 29.1125 150.752 29.5026 150.336 29.8926C149.908 30.2655 149.457 30.6095 148.984 30.9224C148.296 31.4057 147.558 31.8118 146.782 32.1335C146.164 32.391 145.503 32.528 144.835 32.5373C144.483 32.5497 144.138 32.438 143.858 32.2213C143.737 32.1499 143.635 32.0487 143.562 31.927C143.49 31.8053 143.448 31.6671 143.442 31.525C143.442 31.2032 143.621 31.0394 143.98 31.0394C144.04 31.0833 144.096 31.1322 144.147 31.1857C144.294 31.3407 144.455 31.4817 144.627 31.607C144.778 31.7437 144.949 31.8544 145.135 31.9346C145.294 31.9983 145.459 32.0454 145.627 32.075C145.984 32.0583 146.336 31.9792 146.667 31.841C147.162 31.6408 147.641 31.4022 148.1 31.1272C149.185 30.4712 150.179 29.6702 151.053 28.7458C151.627 28.1529 152.182 27.5425 152.717 26.9145C153.26 26.2826 153.792 25.6214 154.324 24.931C155.248 23.6555 155.734 22.8656 155.78 22.5906H155.549C155.214 22.5906 155.052 22.4443 155.052 22.1459C155.052 21.8475 155.312 21.8183 155.838 21.789H156.485C156.762 21.3385 157.184 20.6832 157.745 19.8231C158.305 18.963 159.022 17.8864 159.895 16.6109C163.501 11.4699 166.24 8.88569 168.112 8.85838C168.239 8.85522 168.365 8.87794 168.484 8.92518C168.602 8.97242 168.709 9.04322 168.8 9.13338C168.887 9.21361 168.958 9.31093 169.008 9.41951C169.058 9.52809 169.085 9.64569 169.089 9.76528ZM168.28 9.76528C168.28 9.44348 168.037 9.27965 167.552 9.27965C167.066 9.27965 166.292 9.78869 165.159 10.8009C164.611 11.2978 164.09 11.8252 163.599 12.3807C163.108 12.9248 162.645 13.4924 162.2 14.0833C161.755 14.6742 161.218 15.4934 160.582 16.4237C159.947 17.354 159.207 18.4306 158.375 19.6651L159.594 18.8577C160.068 18.5417 160.646 18.1731 161.328 17.7519C162.987 16.6654 164.492 15.3544 165.801 13.8551C167.453 12.0296 168.28 10.6663 168.28 9.76528Z" fill="#1D1D1B"/>
<path d="M173.625 15.663C173.625 15.663 172.157 17.3774 169.233 20.7592L170.025 20.338L170.834 19.8991C171.401 19.6264 172.016 19.4693 172.643 19.4369C173.221 19.4369 173.538 19.6944 173.585 20.2151C173.471 20.7742 173.176 21.2788 172.747 21.6486C172.482 21.9329 172.19 22.1897 171.874 22.4151C171.556 22.6491 171.198 22.8831 170.793 23.123C170.2 23.4757 169.541 23.6989 168.858 23.7783C168.763 23.7797 168.67 23.7576 168.586 23.714C168.513 23.6648 168.445 23.608 168.384 23.5443C168.321 23.4809 168.271 23.4051 168.238 23.3216C168.206 23.238 168.19 23.1485 168.193 23.0587C168.193 22.6666 168.326 22.4736 168.586 22.4268C168.725 22.4268 168.817 22.4677 168.858 22.5555C168.922 22.6479 168.978 22.7458 169.025 22.848C169.09 22.9601 169.186 23.0501 169.301 23.1064C169.416 23.1627 169.546 23.1827 169.672 23.164C170.1 23.164 170.713 22.8305 171.498 22.1518C172.284 21.4731 172.706 20.9816 172.706 20.4667C172.706 20.2443 172.458 20.1098 171.961 20.0688C171.447 20.0802 170.948 20.2406 170.522 20.531C170.331 20.6598 170.042 20.8763 169.661 21.1864C169.279 21.4965 168.806 21.8943 168.233 22.3565C167.447 23.048 166.704 23.7886 166.009 24.5741C165.238 25.4244 164.441 26.4113 163.616 27.5347C162.202 29.5318 161.432 30.8092 161.305 31.367V32.1277C161.31 32.2103 161.294 32.293 161.258 32.3671C161.221 32.4413 161.165 32.504 161.097 32.5489C160.98 32.6356 160.846 32.6937 160.704 32.7186C160.625 32.7247 160.546 32.7247 160.467 32.7186C160.385 32.7045 160.309 32.6681 160.247 32.6133C160.178 32.5789 160.117 32.5288 160.07 32.4669C160.023 32.405 159.991 32.333 159.975 32.2564C159.975 32.0047 160.073 31.7631 160.247 31.5835C160.358 31.3688 160.479 31.1598 160.611 30.9575C160.667 30.8803 160.719 30.8002 160.767 30.7176C161.341 29.6957 161.988 28.7179 162.703 27.7921C163.547 26.657 164.6 25.3444 165.864 23.8544C166.461 23.1328 167.345 22.1069 168.517 20.7768C169.688 19.4467 171.183 17.783 173.001 15.7859C173.118 15.6407 173.278 15.538 173.458 15.4934C173.527 15.4349 173.585 15.5109 173.625 15.663Z" fill="#1D1D1B"/>
<path d="M186.107 19.8933C186.112 19.9365 186.107 19.9802 186.092 20.0209C186.077 20.0616 186.052 20.0981 186.021 20.1274C185.316 20.7476 184.709 21.2507 184.212 21.6545C183.715 22.0582 183.316 22.3507 183.056 22.5497C182.452 22.9671 181.811 23.3294 181.143 23.6321C180.659 23.8583 180.134 23.9836 179.6 24.0007C178.855 24.0007 178.445 23.4156 178.416 22.2981C177.972 22.6504 177.491 22.9525 176.983 23.1991C176.53 23.4805 176.016 23.6471 175.486 23.6847C175.214 23.6871 174.946 23.6143 174.712 23.4741C174.609 23.4362 174.521 23.3678 174.458 23.278C174.395 23.1881 174.361 23.0811 174.359 22.9709C174.359 22.339 174.922 21.5803 176.046 20.6949C176.547 20.3069 177.087 19.9754 177.659 19.7061C178.09 19.4936 178.561 19.3779 179.04 19.3667C179.554 19.3667 179.82 19.4955 179.832 19.747C179.839 19.8575 179.82 19.9681 179.777 20.0698C179.733 20.1714 179.667 20.2613 179.583 20.3321C179.429 20.4565 179.237 20.5245 179.04 20.5252C179.043 20.496 179.043 20.4666 179.04 20.4375C179.022 20.4075 179.007 20.3762 178.994 20.3438C178.976 20.2973 178.955 20.2522 178.93 20.2093C178.886 20.1121 178.816 20.0291 178.728 19.9692C178.641 19.9094 178.539 19.8751 178.433 19.8699C177.719 19.9432 177.055 20.2733 176.561 20.8002C175.856 21.3853 175.503 21.9236 175.503 22.3975C175.503 22.6959 175.607 22.8481 175.815 22.8598C176.665 22.8188 177.483 22.519 178.161 21.9997C178.483 21.7131 178.781 21.4 179.051 21.0635C179.329 20.7183 179.566 20.5545 179.762 20.5837C179.959 20.613 180.034 20.6539 180.034 20.7944C179.965 21.0872 179.843 21.3648 179.676 21.6135C179.502 21.8732 179.39 22.1693 179.346 22.4794C179.332 22.5857 179.343 22.6937 179.376 22.7954C179.41 22.8971 179.466 22.9897 179.54 23.0663C179.614 23.1429 179.704 23.2015 179.803 23.2377C179.903 23.2739 180.01 23.2867 180.115 23.2752C180.739 23.2752 181.737 22.7993 183.108 21.8475C183.287 21.7305 183.611 21.5082 184.067 21.1688C184.524 20.8295 185.137 20.3789 185.899 19.7997C185.933 19.7714 185.977 19.7568 186.021 19.7587C186.079 19.7665 186.107 19.8114 186.107 19.8933Z" fill="#1D1D1B"/>
<path d="M192.435 19.8933C192.434 19.9774 192.404 20.0584 192.349 20.1215C190.742 21.4555 189.754 22.2454 189.396 22.4619C188.008 23.3756 186.393 23.8708 184.738 23.8895C184.305 23.9117 183.877 23.8016 183.507 23.5736C183.235 23.3776 182.985 23.152 182.761 22.9007C182.756 22.8224 182.77 22.7441 182.802 22.6725C182.565 22.8129 182.34 22.9358 182.126 23.047C181.919 23.1573 181.707 23.2569 181.49 23.3454C181.253 23.3454 181.132 23.3103 181.114 23.2401C181.118 23.1873 181.136 23.1366 181.166 23.0938C181.201 23.0353 181.253 22.9592 181.323 22.8598C182.017 22.5131 182.688 22.1223 183.334 21.6896C184.015 21.2332 184.732 20.7124 185.466 20.1215C185.463 20.1002 185.463 20.0785 185.466 20.0571C185.822 19.7645 186.257 19.5889 186.714 19.554C187.408 19.554 187.754 19.8699 187.754 20.5018C187.701 21.0551 187.477 21.5773 187.113 21.9938C186.807 22.4423 186.414 22.8227 185.957 23.1113C186.82 23.1113 187.951 22.6628 189.349 21.7656C189.748 21.5294 190.134 21.2716 190.505 20.9933C190.962 20.6656 191.511 20.2561 192.146 19.7646C192.194 19.758 192.243 19.758 192.291 19.7646C192.435 19.7704 192.435 19.8114 192.435 19.8933ZM186.778 20.8002C186.778 20.4492 186.593 20.2736 186.235 20.2736H186.003C185.947 20.2698 185.89 20.2841 185.842 20.3146C185.31 20.7651 184.824 21.1688 184.374 21.5257C183.923 21.8826 183.501 22.2044 183.114 22.4853C183.178 22.483 183.242 22.4971 183.299 22.5263C183.661 22.7764 184.074 22.9423 184.507 23.0119C184.803 23.0095 185.096 22.9395 185.362 22.8071C185.663 22.6564 185.926 22.4383 186.131 22.1693C186.314 21.9646 186.468 21.734 186.587 21.4848C186.69 21.2706 186.76 21.0417 186.795 20.8061L186.778 20.8002Z" fill="#1D1D1B"/>
<path d="M198.792 19.8933C198.791 19.9763 198.762 20.0566 198.711 20.1215C197.101 21.4555 196.116 22.2356 195.758 22.4619C194.369 23.3758 192.751 23.8709 191.095 23.8895C190.664 23.9109 190.237 23.8008 189.869 23.5736C189.595 23.3784 189.343 23.1527 189.118 22.9007C189.115 22.8219 189.13 22.7435 189.164 22.6725C188.927 22.8129 188.702 22.9358 188.483 23.047C188.278 23.1573 188.067 23.2569 187.853 23.3454C187.616 23.3454 187.489 23.3103 187.477 23.2401C187.48 23.1873 187.498 23.1366 187.529 23.0938C187.564 23.0353 187.616 22.9592 187.685 22.8597C188.377 22.513 189.047 22.1222 189.69 21.6895C190.395 21.2722 191.118 20.7592 191.857 20.1507C191.852 20.1296 191.852 20.1075 191.857 20.0864C192.213 19.7937 192.649 19.6182 193.106 19.5832C193.799 19.5832 194.146 19.8991 194.146 20.531C194.093 21.0856 193.866 21.6084 193.499 22.023C193.203 22.4683 192.822 22.8484 192.377 23.1406C193.238 23.1406 194.365 22.6901 195.77 21.7949C196.168 21.5586 196.554 21.3008 196.925 21.0225C197.38 20.6949 197.929 20.2853 198.572 19.7938C198.62 19.7868 198.669 19.7868 198.717 19.7938C198.792 19.7704 198.792 19.8114 198.792 19.8933ZM193.134 20.8002C193.134 20.4491 192.955 20.2736 192.591 20.2736H192.366C192.307 20.2697 192.249 20.284 192.198 20.3146C191.672 20.7651 191.181 21.1688 190.73 21.5257C190.28 21.8826 189.864 22.2044 189.471 22.4853C189.537 22.483 189.602 22.497 189.661 22.5262C190.022 22.7789 190.435 22.9449 190.869 23.0119C191.171 23.0168 191.47 22.9507 191.742 22.8188C192.044 22.6697 192.307 22.4513 192.51 22.181C192.696 21.9762 192.851 21.7457 192.973 21.4965C193.066 21.2764 193.129 21.0439 193.158 20.806L193.134 20.8002Z" fill="#1D1D1B"/>
<path d="M203.935 19.8933C203.935 19.9342 203.926 19.9745 203.908 20.0111C203.89 20.0476 203.863 20.0794 203.831 20.104C203.08 20.7651 202.479 21.2742 202.022 21.6603C201.566 22.0465 201.231 22.2981 201.023 22.4385C199.805 23.3551 198.869 23.8135 198.214 23.8135C197.82 23.8121 197.437 23.6874 197.116 23.4566C196.97 23.368 196.846 23.2454 196.756 23.0989C196.665 22.9524 196.61 22.7862 196.596 22.614C196.662 21.9307 196.946 21.2877 197.405 20.7827C197.705 20.285 198.157 19.9006 198.694 19.6885C198.873 19.6885 198.965 19.7529 198.965 19.8758C198.965 19.9986 198.746 20.297 198.301 20.8061C197.963 21.2106 197.752 21.7075 197.694 22.2337C197.694 22.8188 197.948 23.088 198.463 23.0997C198.977 23.1114 200.774 22.0055 203.704 19.8114C203.74 19.7832 203.785 19.7687 203.831 19.7705C203.872 19.7705 203.906 19.8114 203.935 19.8933ZM200.526 18.3194C200.526 18.7114 200.248 18.9045 199.693 18.9045C199.139 18.9045 198.884 18.7056 198.884 18.3194C198.884 17.9332 199.15 17.7343 199.693 17.7343C200.237 17.7343 200.526 17.9098 200.526 18.3194Z" fill="#1D1D1B"/>
<path d="M210.194 19.8933C210.197 19.9322 210.197 19.9714 210.194 20.0103C210.176 20.0591 210.151 20.1046 210.118 20.1449C209.446 20.9131 208.667 21.5791 207.807 22.1225C207.352 22.4718 206.864 22.7755 206.351 23.0294C206.027 23.2014 205.674 23.3087 205.31 23.3454C204.939 23.3509 204.579 23.2079 204.311 22.9475C204.034 23.2319 203.711 23.4673 203.357 23.6438C202.849 23.9385 202.278 24.1032 201.693 24.1235C200.971 24.1235 200.607 23.8368 200.607 23.2635C200.631 22.8409 200.775 22.4345 201.023 22.0933C201.381 21.5954 201.796 21.1418 202.259 20.7417C202.693 20.3459 203.179 20.0131 203.704 19.7529C204.083 19.5606 204.499 19.4528 204.923 19.4369C205.628 19.4369 205.987 19.7704 205.987 20.4433C205.951 20.8795 205.821 21.3024 205.605 21.6817C205.389 22.0609 205.093 22.3873 204.738 22.6374C204.825 22.7269 204.928 22.7975 205.042 22.8448C205.157 22.8921 205.279 22.9151 205.403 22.9124C205.871 22.9124 206.645 22.5262 207.714 21.7422C208.177 21.4145 208.593 21.0927 208.974 20.7709C209.337 20.4695 209.681 20.1451 210.003 19.7997C210.003 19.7587 210.061 19.7529 210.13 19.7997C210.199 19.8465 210.194 19.8289 210.194 19.8933ZM204.08 22.5906C203.94 22.4454 203.831 22.273 203.76 22.0839C203.688 21.8948 203.655 21.693 203.663 21.4906C203.617 21.03 203.752 20.5695 204.039 20.2092C202.386 20.9816 201.566 21.789 201.566 22.6315C201.566 23.1523 201.762 23.4097 202.144 23.4097C202.863 23.3742 203.547 23.0867 204.08 22.5964V22.5906ZM205.68 20.2502C205.68 20.022 205.559 19.8991 205.305 19.8699C205.144 19.8721 204.985 19.9111 204.841 19.9841C204.697 20.057 204.571 20.162 204.473 20.2912C204.264 20.5483 204.14 20.8657 204.12 21.1981C204.076 21.5639 204.173 21.9329 204.392 22.2278C205.224 21.5959 205.651 20.9348 205.68 20.2795V20.2502Z" fill="#1D1D1B"/>
<path d="M219.931 19.8933C219.93 19.9764 219.901 20.0566 219.85 20.1215C218.504 21.2449 217.538 21.9938 217.018 22.3566C216.079 23.1053 214.944 23.5589 213.753 23.6613C212.962 23.6613 212.569 23.2401 212.569 22.3975C212.572 22.2015 212.589 22.0059 212.621 21.8124C212.655 21.5842 212.713 21.3034 212.794 20.9816C212.268 21.2917 211.731 21.6076 211.182 21.9411C210.633 22.2747 210.072 22.6316 209.489 23.0236C209.069 23.336 208.625 23.6119 208.159 23.8486C208.1 23.827 208.044 23.7975 207.992 23.7608C207.905 23.7198 207.865 23.673 207.865 23.6145C207.889 23.4415 207.951 23.276 208.044 23.1289C208.216 22.8189 208.407 22.5199 208.616 22.2337L209.315 21.1922C209.489 20.9289 209.61 20.7476 209.679 20.6071C209.615 20.5 209.587 20.3749 209.598 20.2502C209.598 20.1391 209.685 20.0162 209.864 19.8933C210.006 19.8032 210.163 19.7379 210.326 19.7002C210.795 19.7002 211.031 19.8875 211.031 20.2502C210.864 20.6406 210.64 21.0034 210.367 21.3268L209.835 21.9997C209.716 22.1542 209.586 22.3007 209.448 22.4385C212.083 20.613 213.782 19.7002 214.545 19.7002C214.614 19.7002 214.672 19.7938 214.713 19.9752C214.517 20.2492 214.302 20.5092 214.071 20.7534C213.894 20.9814 213.739 21.2263 213.609 21.4848C213.502 21.7031 213.447 21.9434 213.447 22.1869C213.447 22.7076 213.8 22.9651 214.505 22.9651C215.03 22.9651 215.915 22.5438 217.146 21.7013C217.381 21.5608 218.228 20.9289 219.688 19.8055C219.736 19.7987 219.785 19.7987 219.833 19.8055C219.89 19.7938 219.919 19.8289 219.931 19.8933Z" fill="#1D1D1B"/>
</svg>

