<svg width="188" height="83" viewBox="0 0 188 83" fill="none" xmlns="http://www.w3.org/2000/svg">
<path d="M153.227 35.8583V39.6293H100.878V40.0222C100.878 63.5914 110.438 74.2761 125.485 74.2761C134.301 74.1906 142.752 70.7342 149.112 64.6127L151.62 66.8125C148.224 70.7869 143.984 73.95 139.211 76.0705C134.439 78.191 129.253 79.2153 124.035 79.0685C104.953 79.0685 89.7496 68.5409 89.7496 40.0222C89.7496 12.5248 104.012 0.740158 123.055 0.740158C141.472 0.740158 153.227 11.3463 153.227 35.8583ZM100.878 35.8583H142.412C142.412 18.4171 136.77 4.66836 122.977 4.66836C109.655 4.66836 101.818 15.903 100.878 35.8583Z" fill="white"/>
<path d="M179.852 0.0134253C180.847 -0.047831 181.845 0.101004 182.779 0.450314C183.714 0.799624 184.565 1.34164 185.278 2.04133C185.991 2.74103 186.549 3.58284 186.917 4.51238C187.285 5.44191 187.454 6.43849 187.414 7.43772C187.491 8.44504 187.346 9.45694 186.991 10.4022C186.635 11.3475 186.077 12.2032 185.356 12.909C184.635 13.6149 183.769 14.1538 182.818 14.4878C181.867 14.8219 180.854 14.9429 179.852 14.8424C178.858 14.94 177.854 14.8156 176.914 14.478C175.973 14.1404 175.119 13.5981 174.413 12.89C173.707 12.1819 173.166 11.3257 172.829 10.3829C172.492 9.44019 172.368 8.43433 172.466 7.43772C172.406 6.44881 172.556 5.45842 172.905 4.53182C173.255 3.60522 173.797 2.76345 174.495 2.06197C175.193 1.36049 176.031 0.815239 176.954 0.462139C177.878 0.109038 178.865 -0.0438923 179.852 0.0134253ZM179.852 64.1216C180.855 64.0772 181.856 64.2423 182.793 64.6063C183.729 64.9704 184.579 65.5255 185.29 66.2364C186.001 66.9474 186.557 67.7987 186.923 68.7363C187.288 69.674 187.456 70.6776 187.414 71.6834C187.494 72.6923 187.351 73.7064 186.997 74.6541C186.643 75.6018 186.086 76.46 185.364 77.1681C184.643 77.8762 183.776 78.4169 182.823 78.7521C181.87 79.0872 180.856 79.2086 179.852 79.1077C178.856 79.2059 177.851 79.0811 176.909 78.7424C175.967 78.4037 175.111 77.8595 174.405 77.1492C173.698 76.4389 173.158 75.5801 172.822 74.6349C172.487 73.6897 172.365 72.6816 172.466 71.6834C172.404 70.6878 172.552 69.6905 172.9 68.7558C173.247 67.8211 173.787 66.9699 174.483 66.2572C175.179 65.5446 176.016 64.9862 176.941 64.6184C177.866 64.2505 178.857 64.0813 179.852 64.1216Z" fill="white"/>
<path d="M77.407 2.38998C74.5392 10.6613 70.5297 18.4891 65.4952 25.6449C59.3826 33.7763 53.7402 39.1972 51.781 39.4918C49.8219 39.7865 48.6464 38.3723 49.3713 37.1153C52.656 31.8487 55.5378 26.3399 57.9916 20.6365C59.8805 15.4868 61.1307 10.1239 61.714 4.66834C66.903 3.64186 72.1407 2.88142 77.407 2.38998Z" fill="white"/>
<path d="M22.6088 2.40961C36.1858 2.40961 44.9041 11.1498 44.9041 25.095C44.9041 53.594 19.4349 73.3529 3.23262 82.0539L0.959992 78.1257C17.4366 67.7552 23.9018 56.7562 23.9018 48.3303C23.9018 38.608 0 40.8863 0 22.797C0 10.8356 10.0113 2.40961 22.6088 2.40961Z" fill="white"/>
</svg>
